<?xml version="1.0" standalone="no"?><!DOCTYPE svg PUBLIC "-//W3C//DTD SVG 1.1//EN" "http://www.w3.org/Graphics/SVG/1.1/DTD/svg11.dtd"><svg t="1748499104787" class="icon" viewBox="0 0 1024 1024" version="1.1" xmlns="http://www.w3.org/2000/svg" p-id="2644" xmlns:xlink="http://www.w3.org/1999/xlink" width="200" height="200"><path d="M300.580571 796.562286c0 40.009143-32.585143 73.142857-73.142857 73.142857-40.009143 0-73.142857-33.133714-73.142857-73.142857 0-40.557714 33.133714-73.142857 73.142857-73.142857 40.557714 0 73.142857 32.585143 73.142857 73.142857zM585.142857 914.285714c0 40.557714-32.585143 73.142857-73.142857 73.142857s-73.142857-32.585143-73.142857-73.142857 32.585143-73.142857 73.142857-73.142857 73.142857 32.585143 73.142857 73.142857zM182.857143 512c0 40.557714-32.585143 73.142857-73.142857 73.142857s-73.142857-32.585143-73.142857-73.142857 32.585143-73.142857 73.142857-73.142857 73.142857 32.585143 73.142857 73.142857z m686.848 284.562286c0 40.009143-33.133714 73.142857-73.142857 73.142857-40.557714 0-73.142857-33.133714-73.142857-73.142857 0-40.557714 32.585143-73.142857 73.142857-73.142857 40.009143 0 73.142857 32.585143 73.142857 73.142857zM318.866286 227.437714c0 50.285714-41.142857 91.428571-91.428572 91.428572s-91.428571-41.142857-91.428571-91.428572 41.142857-91.428571 91.428571-91.428571 91.428571 41.142857 91.428572 91.428571zM987.428571 512c0 40.557714-32.585143 73.142857-73.142857 73.142857s-73.142857-32.585143-73.142857-73.142857 32.585143-73.142857 73.142857-73.142857 73.142857 32.585143 73.142857 73.142857zM621.714286 109.714286a109.750857 109.750857 0 0 1-219.428572 0 109.750857 109.750857 0 0 1 219.428572 0z m302.848 117.723428c0 70.838857-57.709714 128-128 128a127.817143 127.817143 0 0 1-128-128c0-70.290286 57.161143-128 128-128 70.290286 0 128 57.709714 128 128z" fill="" p-id="2645"></path></svg>