<?xml version="1.0" standalone="no"?><!DOCTYPE svg PUBLIC "-//W3C//DTD SVG 1.1//EN" "http://www.w3.org/Graphics/SVG/1.1/DTD/svg11.dtd"><svg t="1748593180575" class="icon" viewBox="0 0 1024 1024" version="1.1" xmlns="http://www.w3.org/2000/svg" p-id="2623" xmlns:xlink="http://www.w3.org/1999/xlink" width="200" height="200"><path d="M1024 512a506.688 506.688 0 0 0-155.584-356.352A497.664 497.664 0 0 0 323.648 57.344c-59.072 25.92-112.512 63.488-156.736 109.568S87.744 267.648 64.704 326.72a481.984 481.984 0 0 0 7.36 367.488c25.088 57.088 61.504 108.8 106.112 151.552S275.648 922.24 332.8 944.512a466.304 466.304 0 0 0 179.136 31.552 458.048 458.048 0 0 0 417.664-291.008 446.72 446.72 0 0 0 26.56-103.808l3.776 0.128a64 64 0 0 0 63.744-69.312h0.256z m-101.696 169.92c-23.488 53.184-57.472 101.376-99.2 141.184s-91.008 71.168-144.256 91.776a432.576 432.576 0 0 1-166.912 29.056 427.264 427.264 0 0 1-299.84-132.16 422.208 422.208 0 0 1-88.32-139.072 416.896 416.896 0 0 1 7.424-318.464c21.888-49.28 53.504-93.952 92.224-130.816s84.544-65.856 133.888-84.864c49.344-19.072 102.144-28.032 154.624-26.624s104.256 12.928 151.552 34.048c47.36 21.056 90.24 51.52 125.632 88.768s63.232 81.28 81.408 128.704a385.28 385.28 0 0 1 25.408 148.48h0.256a64 64 0 0 0 56.832 68.928 439.808 439.808 0 0 1-30.784 100.992z" fill="#cdcdcd" p-id="2624"></path></svg>